<svg xmlns="http://www.w3.org/2000/svg" width="25" height="25" viewBox="0 0 390.717 390.717"><path d="M148.732 189.01c.445 2.383 1.444 4.596 2.983 6.47 1.544 1.88 3.54 3.688 5.8 4.647 2.153.915 4.583.753 6.832.326 2.522-.48 4.97-1.334 7.328-2.34 1.978-.843 4.11-1.886 6.344-3.07l-24.33-24.325c-3.4 5.244-6.15 11.933-4.967 18.293zm89.602 4.444c-1.824-1.202-3.858-1.948-6.05-2.048-2.354-.108-4.692.394-6.925 1.095-4.87 1.53-9.37 4.02-13.75 6.57l26.88 26.88c4.99-6.26 9.41-14.77 7.11-22.98-1.1-3.92-3.9-7.29-7.275-9.51z"/><path d="M384.858 234.605L167.433 17.18c-3.336-3.337-7.746-5.386-12.45-5.786L21.693.072c-5.873-.5-11.67 1.618-15.837 5.786S-.427 15.82.072 21.692l11.322 133.292c.4 4.703 2.45 9.113 5.786 12.45l217.426 217.424c7.81 7.81 20.473 7.81 28.283 0l121.97-121.97c7.81-7.81 7.81-20.472-.01-28.283zM82.285 82.285c-5.697 5.7-14.937 5.698-20.635 0L46.223 66.858c-5.698-5.698-5.698-14.937 0-20.635 5.698-5.698 14.937-5.698 20.635 0L82.285 61.65c5.698 5.7 5.7 14.937 0 20.636zm184.53 130.264c-1.343 10.57-6.67 20.2-13.493 28.22l7.872 7.87c2.106 2.105 3.224 5.06 3.04 8.035-.25 4.086-2.96 7.742-6.803 9.16-3.79 1.4-8.16.445-11.02-2.41l-8.6-8.606c-1.51 1.03-3.06 2.01-4.66 2.914-8.85 5.032-19 7.753-29.202 6.956-5.084-.395-10.105-1.6-14.785-3.636-1.223-.534-2.423-1.12-3.597-1.754-1.06-.575-2.144-1.155-3.084-1.92-1.577-1.285-2.753-3.028-3.36-4.97-1.25-3.99.055-8.46 3.266-11.148 3.16-2.645 7.717-3.174 11.396-1.32 1.134.57 2.2 1.252 3.358 1.78 1.15.52 2.345.96 3.565 1.287 2.404.645 4.91.953 7.398.91 5.13-.1 10.093-1.79 14.533-4.285l-29.248-29.25c-8.54 5.025-17.808 9.76-27.76 11.006-4.84.606-9.78.286-14.405-1.315-4.885-1.69-9.206-4.69-12.87-8.3-3.72-3.663-6.676-8.023-8.5-12.927-1.706-4.593-2.46-9.498-2.255-14.388.433-10.457 4.87-20.484 11.097-28.765l-.644-.643-7.53-7.53c-2.104-2.105-3.223-5.063-3.04-8.035.25-4.087 2.96-7.744 6.804-9.16 3.79-1.4 8.16-.447 11.02 2.412l7.53 7.53.6.6c1.09-.847 2.2-1.665 3.33-2.45 8.412-5.834 18.32-9.86 28.665-9.935 4.9-.037 9.817.842 14.4 2.582 1.28.485 2.53 1.04 3.747 1.66 1.14.58 2.304 1.18 3.333 1.94 1.64 1.215 2.9 2.91 3.598 4.83 1.427 3.932.32 8.447-2.762 11.276-3.03 2.777-7.555 3.517-11.31 1.84-1.116-.5-2.126-1.197-3.25-1.69-1.133-.495-2.323-.86-3.534-1.12-2.35-.502-4.77-.53-7.15-.17-5.15.776-9.88 3.23-14.11 6.183l27.99 27.99c5.29-3.246 10.675-6.4 16.374-8.88 8.62-3.74 18.21-5.86 27.475-3.34-1.44-.398-2.846-.78.05.01 2.84.78 1.485.41.06.02 7.413 2.05 13.95 6.822 18.737 12.78 6.353 7.9 9.022 18.12 7.75 28.14z"/></svg>