<svg xmlns="http://www.w3.org/2000/svg" width="310" height="382" viewBox="0 0 310 382"><path fill="#fff" stroke-width="1.8" d="M0 0h310v382H0z"/><path d="M197.297 35.285c8.32-.13 16.64-.1 24.96-.03l.04 2.92c-8.34.08-16.67.07-25.01-.01 0-.72 0-2.16.01-2.88zm55.01-.03c8.32-.08 16.66-.06 24.99.02-.02.72-.04 2.16-.05 2.88-8.29.1-16.59.12-24.88 0-.02-.73-.05-2.18-.06-2.9zm-107.83 107.21c1.59-.5 2.28 2.16.64 2.49-1.59.5-2.28-2.16-.64-2.49zm19.99 0c1.59-.5 2.29 2.15.65 2.49-1.59.5-2.29-2.15-.65-2.49zm-149.13 47.79c11.65-.05 23.31-.12 34.97.03-.02.72-.05 2.17-.07 2.9-11.64.05-23.29.09-34.93-.03.01-.73.02-2.17.03-2.9zm75.96.02c11.65-.1 23.31-.11 34.96-.01 0 .73-.01 2.18-.01 2.91-11.63.06-23.25.05-34.88.03-.02-.73-.05-2.19-.07-2.93zm75.02-.02c11.66-.07 23.31-.05 34.96.02.01.72.01 2.18.02 2.9-11.65.07-23.3.09-34.95-.01-.01-.73-.02-2.18-.03-2.91zm76.04-.02c11.66.01 23.33-.12 34.99.06l-.12 2.91c-11.65-.01-23.3.1-34.96-.06.03-.72.07-2.18.09-2.91zm-227.08 5.02c14.68-.07 29.36-.12 44.04.05-.02.71-.05 2.15-.07 2.87-14.63.09-29.25.05-43.88.01-.02-.73-.07-2.2-.09-2.93zm76.04.01c14.67-.06 29.33-.12 44 .01-.01.72-.04 2.16-.06 2.87-14.64.11-29.29.1-43.93.03 0-.73-.01-2.18-.01-2.91zm75.05-.02c14.64-.07 29.28-.04 43.93 0l-.04 2.94c-14.66.04-29.33.11-43.99-.04.03-.73.08-2.18.1-2.9zm75.94.01c14.67-.08 29.34-.05 44.01-.01l-.08 2.91c-14.62.12-29.24.08-43.85.02l-.08-2.92zm-227 5.01c10.33-.09 20.66-.07 30.99.02 0 .72 0 2.17-.01 2.89-10.31.09-20.62.05-30.94-.01l-.04-2.9zm76.03.01c10.31-.09 20.63-.14 30.95.01v2.88c-10.32.11-20.64.04-30.96.01 0-.72.01-2.17.01-2.9zm75.01-.04c10.31-.06 20.62-.03 30.94 0-.01.73-.02 2.19-.03 2.92-10.31.11-20.63.1-30.95.02l.04-2.94zm75.94.04c10.34-.13 20.67-.07 31-.02-.01.72-.04 2.16-.06 2.89-10.31.15-20.62.07-30.92.01-.01-.72-.01-2.16-.02-2.88zm-227 4.97c7.32-.05 14.65-.07 21.97 0 .01.73.02 2.18.03 2.91-7.32.1-14.63.1-21.95.01-.01-.73-.04-2.19-.05-2.92zm76.06.03c7.29-.11 14.59-.09 21.89-.03.02.73.05 2.19.07 2.91-7.33.11-14.67.08-22.01.03.02-.73.04-2.18.05-2.91zm74.97.01c7.31-.11 14.63-.16 21.94 0l.04 2.88c-7.32.11-14.64.08-21.96 0-.01-.72-.02-2.16-.02-2.88zm76.02-.02c7.32-.13 14.64-.07 21.96-.02l-.04 2.93c-7.33.11-14.65.07-21.97-.02.01-.72.04-2.17.05-2.89zm-226.99 30c39.98-.09 79.95-.09 119.92.01.06 13.3.04 26.6-.01 39.9-39.97.07-79.94.07-119.92 0-.08-13.3-.08-26.61.01-39.91zm151.02-.03c39.96-.03 79.92-.04 119.88 0 .08 13.31.1 26.62-.01 39.93-39.96.12-79.92.04-119.88.03-.09-13.32-.12-26.64.01-39.96zm-.03 55.03c29.31-.11 58.62-.05 87.93-.01l.04 2.9c-29.34.11-58.69.08-88.02.02.01-.73.03-2.18.05-2.91zm-151.04 3c29.31-.07 58.63-.07 87.94-.04.02.74.05 2.22.06 2.96-29.31.06-58.63.05-87.94-.02-.02-.72-.05-2.18-.06-2.9zm151.01 1.97c14.67-.03 29.33-.07 44 .03-.01.72-.02 2.17-.03 2.89-14.64.11-29.28.08-43.91.02-.02-.73-.04-2.2-.06-2.94zm-150.97 3.01c14.64-.05 29.29-.08 43.93.02.01.73.02 2.2.03 2.93-14.65.01-29.3.07-43.94-.03-.01-.73-.01-2.19-.02-2.92zm-.04 30.04c16.66-.11 33.32-.11 49.98-.01 0 8.31.13 16.62-.05 24.93-16.63-.02-33.27.1-49.9-.05-.07-8.29-.05-16.58-.03-24.87zm79.03-.01c39.97-.1 79.95-.1 119.92-.01.1 8.31.08 16.61 0 24.92-39.96.06-79.93.06-119.9 0-.1-8.31-.09-16.61-.02-24.91zm148.05-.03c16.61-.03 33.23-.06 49.85-.02.13 8.31.1 16.63.03 24.95-16.63.06-33.27.08-49.91.01-.12-8.32-.09-16.63.03-24.94zm-227.06 36.01c14.65-.08 29.3-.06 43.95-.01-.01.74-.02 2.21-.03 2.94-14.63.03-29.27.08-43.9-.01 0-.73-.01-2.19-.02-2.92zm226.98.02c14.66-.11 29.33-.12 43.99-.01-.01.72-.01 2.16-.01 2.88-14.66.12-29.32.14-43.98.01v-2.88zm-226.99 4.99c9.31-.11 18.63-.07 27.95-.02.01.73.04 2.18.05 2.91-9.33.12-18.66.1-27.99 0 0-.72-.01-2.17-.01-2.89zm79.05-.02c23.64-.06 47.28-.05 70.91 0v2.91c-23.65.12-47.3.05-70.95.02l.04-2.93zm147.97.01c9.32-.1 18.64-.03 27.96-.01v2.92c-9.32.1-18.63.06-27.94.03-.01-.74-.01-2.21-.02-2.94zm-147.99 5.01c14.64-.08 29.29-.12 43.93.02.01.72.03 2.15.05 2.87-14.66.11-29.32.08-43.97.02 0-.73-.01-2.18-.01-2.91z" fill="#e8e8e8"/><path d="M189.297 21.225c17.67-.01 35.33-.02 53 0v23.98c-17.66.02-35.33.01-52.99.01-.02-8-.01-16-.01-23.99m1 1c0 7.33-.01 14.66.01 21.99h50.98c.02-7.33.01-14.66.01-21.99-17-.02-34-.01-51 0z" fill="#ffb2b2"/><path d="M197.297 28.225c13.33-.02 26.67-.01 40-.01v4h-40v-3.99zm55-.01c13.33 0 26.67-.01 40 .01v3.99c-13.34 0-26.67 0-40-.01v-3.99zm-237 4.01c8.33-.02 16.67-.02 25 0v2.98c-8.33.01-16.67.02-25 0v-2.98zm40 0c8.33-.02 16.67-.02 25 0v2.98c-8.33.02-16.67.01-25 .01v-2.99zm40 0c8.33-.02 16.66-.02 25 0v2.98c-8.33.01-16.67.02-25 0v-2.98zm-80 149c16.66-.02 33.33-.02 50 0v2.98c-16.66.02-33.33.02-50 0v-2.98zm76-.01c16.67 0 33.33-.01 50 .01v2.98c-16.67.01-33.33.02-50 0v-2.99zm75 .01c16.67-.02 33.33-.01 50 0v2.98c-16.67.02-33.33.02-50 0v-2.98zm76 0c16.67-.02 33.34-.02 50.01 0 0 .74-.01 2.24-.01 2.98-16.67.02-33.33.01-50 0v-2.98zm-227 102c31.33-.01 62.67-.02 94 0v2.98c-31.33.01-62.67.02-94 0v-2.98zm151 0c31.33-.02 62.66-.01 94 0v2.98c-31.33.02-62.67.01-94 0v-2.98zm-151 5c11.67-.01 23.34-.02 35.01 0 0 .75-.01 2.24-.01 2.98-11.67.01-23.33.02-35 0v-2.98zm0 71c11.67-.02 23.33-.01 35 0v2.98c-11.67.02-23.33.01-35 0v-2.98zm79 0c25.33-.02 50.66-.01 76 0 0 .74 0 2.24.01 2.98-25.34.02-50.67.01-76.01 0v-2.98zm148 0c11.67-.02 23.33-.02 35 0v2.98c-11.67.01-23.34.02-35 0v-2.98zm-148 5c11.67-.02 23.33-.02 35 0v2.98c-11.67.01-23.34.02-35 0v-2.98z" fill="#b6b6b6"/><path d="M13.597 111.195c1.9-1.61 3.91-3.1 6.05-4.39-.67 1.48-1.38 2.95-2.1 4.41.71 1.48 1.42 2.95 2.1 4.45-2.15-1.31-4.15-2.83-6.05-4.47zm276.35-4.45c2.13 1.3 4.13 2.79 6.04 4.39-1.87 1.69-3.84 3.25-5.98 4.58.65-1.51 1.32-3.01 2.01-4.5-.7-1.49-1.4-2.97-2.07-4.47z" fill="#c1c1c1"/><g transform="translate(1.967 -.126)"><ellipse ry="13.141" rx="13.127" cy="31.534" cx="155.592" fill="#e8e8e8" stroke="#e8e8e8" stroke-width=".8"/><ellipse ry="16.987" rx="16.963" cy="31.684" cx="155.717" fill-opacity="0" stroke="#ffc9c9" stroke-width="1.424"/></g><path fill="#e8e8e8" stroke-width="1.8" d="M0 65h310v92H0z"/><circle cx="154.625" cy="144.125" r="2.237" fill="#757575" stroke="#757575" stroke-width=".976"/><ellipse cx="164.25" cy="144.125" rx="2.351" ry="2.226" fill-opacity="0" stroke="#757575" stroke-width=".998"/><circle cx="145.125" cy="144.125" r="2.237" fill-opacity="0" stroke="#757575" stroke-width=".976"/><path d="M20.406 105.606l-3.93 3.81 3.93 3.81-3.93-3.81z" fill="#fff" fill-rule="evenodd" stroke="#c4c4c4" stroke-width="1.2"/><path d="M288.368 105.372l4.285 3.878-4.285 3.878" fill="none" fill-rule="evenodd" stroke="#c4c4c4" stroke-width="1.168"/><circle cx="154.625" cy="308.75" r="2.237" fill="#757575" stroke="#757575" stroke-width=".976"/><ellipse cx="164.25" cy="308.75" rx="2.351" ry="2.226" fill-opacity="0" stroke="#757575" stroke-width=".998"/><circle cx="145.125" cy="308.75" r="2.237" fill-opacity="0" stroke="#757575" stroke-width=".976"/></svg>